PathFileType	4	(X/Y/Z)	C:/Users/beibeiliu/ov580/test_trc/User1\sequence.2_training_dense_left.trc
DataRate	CameraRate	NumFrames	NumMarkers	Units	OrigDataRate	OrigDataStartFrame	OrigNumFrames
120	120	24	19	mm	120	1	145
Frame#	Time	ThumbCMC			ThumbMCP			ThumbIP			ThumbTip			IndexMCP			IndexPIP			IndexTip			MiddleMCP			MiddlePIP			MiddleTip			RingMCP			RingPIP			RingTip			PinkyMCP			PinkyPIP			PinkyTip			BackHand1			BackHand2			BackHand3	
		X0	Y0	Z0	X1	Y1	Z1	X2	Y2	Z2	X3	Y3	Z3	X4	Y4	Z4	X5	Y5	Z5	X6	Y6	Z6	X7	Y7	Z7	X8	Y8	Z8	X9	Y9	Z9	X10	Y10	Z10	X11	Y11	Z11	X12	Y12	Z12	X13	Y13	Z13	X14	Y14	Z14	X15	Y15	Z15	X16	Y16	Z16	X17	Y17	Z17	X18	Y18	Z18	
0	0	-128.841	83.7179	106.759	-105.803	68.467	83.476	-89.6381	62.6871	59.2943	-81.8984	50.4518	33.4237	-150.368	107.778	26.1571	-145.531	108.302	-1.65326	-139.335	100.002	-33.0087	-178.118	104.366	18.7732	-180.194	108.532	-11.9168	-178.997	103.628	-43.7239	-194.781	89.005	20.1525	-198.564	93.0176	-5.20998	-197.724	89.1784	-32.5465	-209.386	60.0786	31.83	-212.157	60.0773	12.7354	-210.313	64.7468	-14.8375	-197.233	82.7625	73.6686	-202.025	76.9711	111.527	-171.023	98.58	95.4895	
1	0.00833333	-130.273	82.666	104.031	-105.103	69.3685	82.1873	-95.0195	62.0476	58.1253	-83.1243	49.9212	34.0272	-150.88	107.044	24.3122	-146.663	106.823	-6.30033	-140.58	97.5376	-34.1609	-178.032	104.601	16.0616	-179.689	108.101	-9.57806	-179.774	103.191	-43.9192	-198.686	85.8285	21.5461	-197.369	92.3674	-5.92761	-197.199	89.5153	-37.806	-206.871	59.7415	35.4222	-212.93	58.9601	7.27742	-213.754	62.8985	-14.2887	-198.876	79.0006	76.3272	-201.643	78.2815	108.791	-169.887	97.8756	93.3204	
2	0.0166667	-130.732	81.3035	105.413	-107.525	68.0361	84.2578	-91.467	61.3189	55.2741	-84.5954	50.0799	38.2018	-146.298	109.146	20.9685	-147.034	106.178	-4.29742	-138.492	100.389	-30.2108	-179.949	102.42	18.8988	-179.773	107.306	-11.1357	-177.528	104.857	-42.3059	-194.12	87.566	23.4879	-197.432	92.0923	-10.6663	-197.735	88.5138	-37.1003	-208.992	59.6603	33.7796	-213.06	58.1086	9.18078	-211.331	61.3344	-14.7012	-199.951	79.1949	75.4228	-200.499	76.9859	107.926	-171.432	95.9165	95.3794	
3	0.025	-127.954	83.5488	100.733	-108.235	67.9557	80.6407	-93.5397	60.8813	56.768	-83.1807	49.4787	39.2964	-149.369	107.561	20.8537	-143.937	108.624	-7.86996	-143.558	97.2484	-30.1572	-178.129	102.734	19.551	-180.381	106.888	-14.0001	-179.766	102.584	-43.8878	-194.63	88.2244	20.4269	-198.782	91.3031	-9.96701	-196.685	89.6208	-32.576	-204.932	60.8723	34.4993	-210.384	61.3896	9.14778	-213.208	63.0289	-15.2735	-198.204	79.3842	71.9549	-204.468	75.4271	105.629	-170.834	97.5544	92.0993	
4	0.0333333	-132.159	80.8792	103.461	-106.519	67.7751	78.9107	-90.6599	60.3729	58.3552	-80.8122	48.2233	36.832	-147.391	108.828	24.2735	-146.308	108.273	-3.38643	-140.227	100.508	-29.959	-177.385	105.965	14.4237	-177.547	107.735	-16.2958	-177.758	104.101	-42.4936	-197.958	84.2015	20.3694	-197.814	91.9796	-11.4589	-197.689	87.6295	-37.4719	-209.434	57.4348	31.7525	-208.99	60.7877	10.2739	-212.987	62.0957	-15.9588	-199.578	79.7241	72.5118	-199.713	78.5399	104.975	-170.968	95.9275	91.5069	
5	0.0416667	-130.737	81.262	100.104	-106.952	67.3513	80.2884	-92.469	59.9047	54.8987	-80.3976	47.0912	36.2309	-145.846	107.829	25.8657	-146.776	104.626	-7.04651	-139.642	98.6069	-29.4712	-179.343	101.585	15.2939	-177.806	106.74	-13.0727	-179.005	100.912	-43.4091	-197.758	83.024	20.675	-199.495	88.8585	-10.9501	-198.545	85.8905	-34.0394	-207.46	58.4285	32.7812	-208.909	59.2937	12.6145	-211.701	58.5519	-14.5929	-196.043	79.3969	76.7108	-200.919	75.4145	106.865	-167.644	96.393	93.7424	
6	0.05	-127.725	82.7592	101.318	-103.503	67.6843	80.3063	-93.1043	58.1392	59.7128	-82.1604	47.4454	38.4118	-148.269	106.397	20.8414	-143.203	106.673	-2.37127	-140.21	97.0734	-29.4664	-179.305	101.238	15.0955	-176.749	106.476	-10.4509	-176.869	102.879	-44.7512	-192.819	84.9209	23.5365	-197.731	88.8744	-7.56033	-195.249	88.6328	-37.1263	-208.292	56.5845	33.1126	-210.28	57.2204	7.5855	-211.319	58.8001	-15.7034	-193.285	78.2042	77.1718	-201.535	74.6971	108.702	-170.64	96.3224	95.1667	
7	0.0583333	-128.194	82.7769	106.307	-104.286	67.4366	83.6236	-88.5907	60.5148	56.9006	-77.9768	48.0028	38.5751	-147.236	108.032	22.6138	-141.366	107.047	-6.58249	-140.666	97.7576	-29.4385	-177.365	102.652	15.7995	-177.133	106.235	-11.0747	-173.092	104.663	-46.7229	-192.812	86.2772	22.8019	-199.479	88.0332	-7.8047	-196.941	86.7995	-33.2689	-208.476	58.3137	31.1102	-209.196	58.4817	11.6014	-210.196	59.183	-17.95	-197.944	76.5199	76.8473	-201.014	75.5714	107.191	-168.172	99.1561	95.1896	
8	0.0666667	-128.357	81.9552	103.056	-105.685	66.9001	80.2801	-93.5765	59.5782	57.7982	-81.5374	48.1408	34.7613	-147.604	108.008	25.0041	-143.431	107.125	-7.48556	-135.786	99.3518	-33.3057	-177.177	102.884	19.3489	-179.983	105.689	-14.6513	-176.119	103.42	-44.2034	-195.349	86.4421	21.3559	-199.682	89.3635	-7.16797	-194.455	89.0821	-35.7451	-208.28	57.6406	35.5255	-209.664	59.0348	12.8162	-212.139	59.9597	-15.5563	-195.625	78.1931	75.5256	-201.493	74.3335	109.968	-168.81	96.1489	95.4717	
9	0.075	-130.727	80.1363	104.379	-102.196	66.1192	81.5606	-89.183	59.1471	60.3403	-83.5142	46.4144	38.8336	-146.229	107.538	23.8759	-146.304	105.847	-3.02903	-140.192	98.1426	-31.1421	-176.208	103.998	17.2503	-176.76	108.04	-12.1038	-175.539	103.489	-42.6492	-192.837	88.3491	20.4471	-200.621	88.892	-5.74419	-195.59	87.1606	-34.2583	-204.439	59.7953	35.8307	-210.593	58.0633	9.83357	-210.156	60.5178	-14.7985	-198.415	76.8692	75.6788	-201.65	75.8318	105.989	-168.159	96.134	96.2972	
10	0.0833333	-128.873	81.4032	102.499	-104.52	65.7679	81.8243	-90.7658	57.6418	58.0979	-80.3463	45.5778	36.3411	-148.208	105.099	22.1836	-143.543	105.797	-4.09881	-139.771	95.9375	-33.4309	-177.589	102.542	15.16	-177.141	105.631	-11.6556	-178.475	99.9891	-43.1429	-197.479	82.2574	21.2355	-199.855	87.6349	-6.62132	-195.407	86.938	-36.0928	-204.491	58.5506	35.1671	-210.559	58.1863	10.0723	-210.02	59.3771	-14.6512	-198.36	75.8522	75.5675	-200.704	74.4925	104.485	-170.711	95.5157	94.4794	
11	0.0916667	-132.412	78.3274	104.265	-102.524	65.2788	83.7222	-89.2528	57.763	59.8174	-83.3406	45.4535	38.594	-147.131	105.517	21.6482	-143.198	104.807	-6.67206	-140.669	96.1477	-29.9521	-177.389	100.991	17.7692	-179.612	104.602	-13.9682	-177.212	100.971	-46.95	-196.12	81.7938	22.8853	-196.994	88.4324	-6.15654	-197.449	85.2124	-32.9417	-204.914	59.7936	30.0175	-208.827	58.12	11.9931	-212.421	57.7916	-16.7012	-199.12	77.0379	73.6463	-203.754	73.2439	105.975	-167.48	94.9192	92.7161	
12	0.1	-132.423	80.2292	99.9975	-108.054	63.9119	81.0077	-89.1784	56.8488	59.4084	-79.6394	45.5976	37.8726	-146.545	106.293	20.5526	-142.026	106.243	-5.66708	-139.979	97.3337	-28.9762	-176.101	102.705	15.9133	-178.982	104.931	-15.3846	-178.789	101.123	-43.1569	-197.878	82.5352	21.4797	-196.046	90.3124	-9.22471	-196.142	86.4432	-34.6042	-207.155	56.555	34.1865	-210.438	57.0896	12.531	-211.552	59.8596	-17.5096	-194.277	77.8783	72.5002	-201.017	73.721	108.415	-169.298	93.4054	94.5944	
13	0.108333	-130.34	79.4494	103.884	-103.219	65.6709	80.4982	-89.1992	58.544	56.8044	-80.5356	45.4837	35.8471	-150.083	104.542	23.5473	-145.531	106.197	-3.50549	-139.871	97.0881	-33.1009	-178.158	103.51	14.4734	-177.599	106.645	-14.778	-176.794	103.111	-42.5839	-195.569	85.4372	19.6164	-197.486	89.2552	-5.86884	-195.126	87.5447	-33.0008	-205.699	60.5179	29.927	-210.801	56.8538	7.01785	-210.285	60.6965	-16.8926	-194.858	77.9222	72.4829	-201.265	76.5496	106.298	-170.159	95.9187	96.8231	
14	0.116667	-129.239	81.7626	103.672	-104.921	66.3889	83.6788	-89.5512	58.8368	59.4474	-82.8248	46.954	37.2672	-150.522	105.591	20.853	-146.869	105.327	-5.14796	-140.386	96.861	-32.1544	-176.642	103.029	17.6962	-177.13	107.251	-12.9237	-178.137	102.511	-47.6796	-195.293	85.5559	20.6652	-198.077	89.8995	-8.0738	-194.52	87.9261	-32.2885	-209.342	57.906	30.342	-212.189	57.5841	11.8671	-213.186	59.875	-18.7138	-199.407	76.8953	75.2348	-199.582	75.0614	105.693	-171.075	95.6274	93.965	
15	0.125	-129.492	81.0716	103.239	-105.768	66.331	80.3816	-89.6176	59.9914	54.8195	-81.2697	46.4016	38.5913	-148.617	106.874	22.9595	-143.682	107.777	-5.03444	-141.769	96.5664	-35.0533	-179.534	101.576	18.6045	-176.997	108.266	-15.5574	-177.73	104.139	-43.7828	-196.628	84.681	22.4906	-197.119	90.2105	-6.16221	-196.719	87.0706	-33.3706	-209.546	57.526	31.8424	-210.178	58.7576	10.5818	-210.376	61.7623	-17.0462	-196.449	77.9257	72.7029	-200.383	75.429	106.608	-169.773	98.6636	92.1719	
16	0.133333	-129.254	81.5351	104.541	-103.594	66.7248	78.0927	-91.4106	59.0884	57.3265	-81.8702	47.0657	33.8388	-149.394	105.965	24.5619	-145.896	104.564	-7.97737	-141.564	97.2842	-32.5011	-180.148	99.5938	19.2444	-181.005	105.496	-13.9503	-179.268	102.519	-43.5987	-193.754	86.1017	20.883	-199.792	89.7738	-8.85224	-197.622	87.847	-37.551	-207.856	58.0365	30.5159	-210.704	58.2576	11.0659	-210.608	60.5035	-14.8391	-197.497	77.1728	76.6869	-200.303	77.6559	105.029	-171.239	97.5644	91.065	
17	0.141667	-127.694	82.1533	102.72	-105.945	65.2023	82.6188	-91.361	57.7367	59.1467	-80.19	45.6241	36.4605	-146.455	107.151	25.2026	-145.476	104.469	-7.90338	-140.523	96.9882	-31.7205	-179.426	101.995	14.966	-178.258	106.353	-12.9366	-179.23	101.663	-47.858	-196.922	84.8033	20.4164	-200.22	89.2888	-6.20659	-193.636	89.0599	-35.199	-206.168	58.9233	33.3251	-211.928	57.3291	8.53183	-211.429	60.1596	-12.8304	-195.968	79.1756	74.0447	-201.94	75.8765	104.227	-172.247	95.8223	92.4506	
18	0.15	-126.61	82.0299	101.773	-106.592	64.8759	82.7764	-88.9372	56.819	55.5961	-84.1597	45.0919	36.7561	-146.724	105.217	25.6079	-143.561	106.129	-5.36244	-141.333	95.7122	-32.1957	-177.761	101.79	18.3351	-180.224	104.664	-16.39	-179.265	101.364	-42.2005	-195.817	84.226	22.7674	-200.668	88.3073	-8.4954	-196.123	87.7719	-37.3626	-206.466	57.6764	33.4608	-209.318	58.6502	8.2584	-209.591	61.7709	-13.1555	-194.439	78.2399	76.3404	-202.09	75.7305	107.913	-171.11	92.8392	93.6238	
19	0.158333	-128.943	79.468	102.659	-102.43	65.7461	81.9973	-90.4015	58.6469	57.35	-80.436	46.8974	35.833	-149.115	107.012	21.6984	-144.263	106.46	-2.58428	-138.35	94.8383	-30.9003	-178.924	102.96	15.5848	-175.463	107.21	-13.1876	-176.412	101.139	-42.8293	-197.549	84.2453	18.7672	-197.433	88.6458	-6.11368	-193.785	87.1618	-36.5278	-207.49	56.7733	34.6273	-211.071	57.0429	11.1674	-210.272	58.4607	-14.826	-196.427	79.3857	74.7877	-198.751	71.543	110.018	-166.941	95.1556	96.7431	
20	0.166667	-133.62	82.3287	105.963	-105.383	73.7676	78.5351	-92.4374	69.8483	53.0322	-83.624	59.1586	30.4622	-152.597	112.91	28.8113	-145.603	110.529	-4.63643	-133.302	95.8548	-28.5868	-182.507	104.487	19.3119	-176.213	111.336	-11.3275	-170.651	102.96	-44.0214	-197.84	85.9544	21.4947	-198.248	90.587	-11.9847	-188.782	88.1984	-35.1853	-206.355	58.3453	32.2534	-208.341	57.7166	8.69009	-204.116	62.0622	-16.8186	-197.808	77.1383	76.2811	-200.735	70.8367	106.957	-174.874	95.8061	95.0653	
21	0.175	-141.552	95.947	104.807	-116.284	89.091	82.4641	-102.324	91.0342	53.9808	-94.8812	82.834	33.1534	-161.512	122.994	28.2673	-148.266	120.603	0.736149	-128.804	102.177	-14.8372	-186.55	114.019	16.8515	-178.121	112.298	-14.5989	-161.403	102.742	-38.7745	-200.702	88.7106	21.1022	-195.018	92.4251	-12.8576	-182.007	86.3835	-35.0786	-204.931	61.0255	27.284	-202.441	60.2736	3.05348	-196.604	61.2665	-18.5865	-204.186	78.8245	75.6975	-206.77	67.1779	109.521	-184.314	98.8948	98.9039	
22	0.183333	-152.428	103.11	106.708	-129.248	105.068	75.9385	-116.976	108.71	49.6314	-108.151	103.022	23.8076	-173.279	128.392	30.8211	-154.879	121.818	2.9401	-129.724	103.572	-0.959414	-193.983	111.7	16.3816	-181.683	107.316	-12.375	-150.142	94.8726	-32.1514	-202.59	88.2885	20.2293	-194.322	86.6332	-13.0442	-170.9	84.8904	-30.5648	-205.336	55.9402	26.1792	-197.429	55.9502	1.19566	-187.693	58.376	-20.54	-212.464	73.7999	74.7353	-213.255	64.1878	109.927	-196.139	101.082	99.6081	
23	0.191667	-162.171	107.168	102.723	-138.655	110.451	74.0501	-126.977	114.216	51.2294	-120.048	110.802	22.1391	-181.238	128.521	24.6708	-157.95	118.106	0.384315	-132.961	105.375	3.41565	-200.931	105.937	10.1135	-178.922	108.472	-14.6505	-144.03	94.6968	-22.1067	-207.518	80.3858	13.5941	-189.059	83.9887	-15.6172	-163.048	80.0489	-27.2637	-204.584	56.4441	24.6426	-194.353	56.0859	0.416972	-178.6	60.1288	-18.0303	-213.773	69.2198	75.6227	-214.049	59.1993	105.556	-202.978	97.9779	94.7396	
